<svg width="23" height="17" viewBox="0 0 23 17" fill="none" xmlns="http://www.w3.org/2000/svg">
<path d="M19 9.05514H1C0.44 9.05514 0 8.6144 0 8.05345C0 7.4925 0.44 7.05176 1 7.05176H19C19.56 7.05176 20 7.4925 20 8.05345C20 8.6144 19.56 9.05514 19 9.05514Z" fill="#081B46"/>
<path d="M14 16.0671C13.8688 16.0687 13.7388 16.0428 13.6183 15.9911C13.4977 15.9393 13.3893 15.8629 13.3 15.7666C12.9 15.3659 12.9 14.7449 13.3 14.3442L19.6 8.03356L13.3 1.72291C12.9 1.32223 12.9 0.701184 13.3 0.300507C13.7 -0.100169 14.32 -0.100169 14.72 0.300507L21.72 7.31235C22.12 7.71302 22.12 8.33407 21.72 8.73475L14.72 15.7466C14.52 15.9469 14.26 16.0471 14.02 16.0471L14 16.0671Z" fill="#081B46"/>
</svg>
