<svg width="34" height="37" viewBox="0 0 34 37" fill="none" xmlns="http://www.w3.org/2000/svg">
<path d="M34 3.06816V27.6134C34 28.4271 33.7245 29.2075 33.234 29.7829C32.7435 30.3583 32.0783 30.6816 31.3846 30.6816H9.56253L4.31869 36.0719C4.31238 36.08 4.30524 36.0871 4.29744 36.093C3.82782 36.5611 3.23164 36.818 2.61543 36.8179C2.23174 36.8171 1.85287 36.7176 1.50552 36.5264C1.05372 36.2822 0.67147 35.8904 0.404485 35.398C0.1375 34.9055 -0.00291139 34.3333 4.57646e-05 33.7497V3.06816C4.57646e-05 2.25443 0.275594 1.47403 0.766073 0.898642C1.25655 0.323251 1.92178 0 2.61543 0H31.3846C32.0783 0 32.7435 0.323251 33.234 0.898642C33.7245 1.47403 34 2.25443 34 3.06816Z" fill="#DE9E5B"/>
</svg>
