<svg width="81" height="34" viewBox="0 0 81 34" fill="none" xmlns="http://www.w3.org/2000/svg">
<path d="M4.125 16.0434H25.375M4.125 16.0434V25.1302C4.125 25.5684 4.27426 25.9886 4.53993 26.2985C4.80561 26.6083 5.16594 26.7824 5.54167 26.7824H23.9583C24.3341 26.7824 24.6944 26.6083 24.9601 26.2985C25.2257 25.9886 25.375 25.5684 25.375 25.1302V16.0434M4.125 16.0434V3.65216C4.125 3.21398 4.27426 2.79375 4.53993 2.48391C4.80561 2.17407 5.16594 2 5.54167 2H23.9583C24.3341 2 24.6944 2.17407 24.9601 2.48391C25.2257 2.79375 25.375 3.21398 25.375 3.65216V16.0434" stroke="black" stroke-width="4" stroke-linejoin="round"/>
<path d="M8.375 31.7387C7.81141 31.7387 7.27091 31.4776 6.8724 31.0128C6.47388 30.5481 6.25 29.9177 6.25 29.2605V26.7822H10.5V29.2605C10.5 29.9177 10.2761 30.5481 9.8776 31.0128C9.47909 31.4776 8.93858 31.7387 8.375 31.7387ZM21.125 31.7387C20.5614 31.7387 20.0209 31.4776 19.6224 31.0128C19.2239 30.5481 19 29.9177 19 29.2605V26.7822H23.25V29.2605C23.25 29.9177 23.0261 30.5481 22.6276 31.0128C22.2291 31.4776 21.6886 31.7387 21.125 31.7387Z" stroke="black" stroke-width="4" stroke-linecap="round" stroke-linejoin="round"/>
<path d="M2 6.95605V10.2604M27.5 6.95605V10.2604" stroke="black" stroke-width="4" stroke-linecap="round"/>
<path d="M8.37467 23.4781C9.15708 23.4781 9.79134 22.7385 9.79134 21.826C9.79134 20.9135 9.15708 20.1738 8.37467 20.1738C7.59227 20.1738 6.95801 20.9135 6.95801 21.826C6.95801 22.7385 7.59227 23.4781 8.37467 23.4781Z" fill="black"/>
<path d="M21.1247 23.4781C21.9071 23.4781 22.5413 22.7385 22.5413 21.826C22.5413 20.9135 21.9071 20.1738 21.1247 20.1738C20.3423 20.1738 19.708 20.9135 19.708 21.826C19.708 22.7385 20.3423 23.4781 21.1247 23.4781Z" fill="black"/>
<path d="M19.708 2L13.333 10.2608M24.6663 2.82608L21.1247 7.78256" stroke="black" stroke-width="4" stroke-linecap="round"/>
<path d="M80.1663 31.6949H51.833V28.3906H53.2497V3.60821C53.2497 3.17003 53.3989 2.7498 53.6646 2.43996C53.9303 2.13012 54.2906 1.95605 54.6663 1.95605H74.4997C74.8754 1.95605 75.2357 2.13012 75.5014 2.43996C75.7671 2.7498 75.9163 3.17003 75.9163 3.60821V11.869H78.7497V28.3906H80.1663V31.6949ZM73.083 28.3906H75.9163V15.1733H67.4163V28.3906H70.2497V18.4777H73.083V28.3906ZM73.083 11.869V5.26037H56.083V28.3906H64.583V11.869H73.083ZM58.9163 15.1733H61.7497V18.4777H58.9163V15.1733ZM58.9163 21.782H61.7497V25.0863H58.9163V21.782ZM58.9163 8.56469H61.7497V11.869H58.9163V8.56469Z" fill="black"/>
<path d="M38.792 18.2356H34.542V16.5834H38.792V11.627H40.2087V16.5834H44.4587V18.2356H40.2087V23.1921H38.792V18.2356Z" fill="black"/>
</svg>
