<svg width="34" height="40" viewBox="0 0 34 40" fill="none" xmlns="http://www.w3.org/2000/svg">
<path d="M24.0833 18.1739H26.9167C27.6681 18.1739 28.3888 18.522 28.9201 19.1417C29.4515 19.7614 29.75 20.6018 29.75 21.4782V24.7825C29.75 25.2207 29.6007 25.6409 29.3351 25.9508C29.0694 26.2606 28.7091 26.4347 28.3333 26.4347H26.2083M24.0833 18.1739H14.875M24.0833 18.1739L20.6592 11.5173C20.4075 11.028 20.0514 10.6231 19.6257 10.342C19.1999 10.0608 18.7189 9.91308 18.2297 9.91309H14.875M26.2083 26.4347C26.2083 27.311 25.9098 28.1515 25.3785 28.7712C24.8471 29.3909 24.1264 29.739 23.375 29.739C22.6236 29.739 21.9029 29.3909 21.3715 28.7712C20.8402 28.1515 20.5417 27.311 20.5417 26.4347M26.2083 26.4347C26.2083 25.5583 25.9098 24.7179 25.3785 24.0982C24.8471 23.4785 24.1264 23.1304 23.375 23.1304C22.6236 23.1304 21.9029 23.4785 21.3715 24.0982C20.8402 24.7179 20.5417 25.5583 20.5417 26.4347M14.875 18.1739V9.91309M14.875 18.1739H7.08333M14.875 9.91309H10.8233C10.1681 9.91278 9.533 10.1774 9.02621 10.6617C8.51942 11.1461 8.17226 11.8204 8.04383 12.5698L7.08333 18.1739M7.08333 18.1739C6.33189 18.1739 5.61122 18.522 5.07986 19.1417C4.54851 19.7614 4.25 20.6018 4.25 21.4782V24.7825C4.25 25.2207 4.39926 25.6409 4.66493 25.9508C4.93061 26.2606 5.29094 26.4347 5.66667 26.4347H7.79167M7.79167 26.4347C7.79167 27.311 8.09018 28.1515 8.62153 28.7712C9.15288 29.3909 9.87355 29.739 10.625 29.739C11.3764 29.739 12.0971 29.3909 12.6285 28.7712C13.1598 28.1515 13.4583 27.311 13.4583 26.4347M7.79167 26.4347C7.79167 25.5583 8.09018 24.7179 8.62153 24.0982C9.15288 23.4785 9.87355 23.1304 10.625 23.1304C11.3764 23.1304 12.0971 23.4785 12.6285 24.0982C13.1598 24.7179 13.4583 25.5583 13.4583 26.4347M13.4583 26.4347H20.5417" stroke="black" stroke-width="2" stroke-linecap="round" stroke-linejoin="round"/>
</svg>
