<svg width="10" height="10" viewBox="0 0 10 10" fill="none" xmlns="http://www.w3.org/2000/svg">
<g clip-path="url(#clip0_170_160)">
<path d="M4.99967 0.833496C4.4525 0.833496 3.91068 0.94127 3.40516 1.15066C2.89964 1.36006 2.44031 1.66697 2.0534 2.05388C1.27199 2.83529 0.833008 3.89509 0.833008 5.00016C0.833008 6.10523 1.27199 7.16504 2.0534 7.94644C2.44031 8.33335 2.89964 8.64027 3.40516 8.84966C3.91068 9.05906 4.4525 9.16683 4.99967 9.16683C6.10474 9.16683 7.16455 8.72784 7.94595 7.94644C8.72735 7.16504 9.16634 6.10523 9.16634 5.00016C9.16634 4.45299 9.05857 3.91117 8.84917 3.40565C8.63978 2.90013 8.33286 2.4408 7.94595 2.05388C7.55904 1.66697 7.09971 1.36006 6.59419 1.15066C6.08867 0.94127 5.54685 0.833496 4.99967 0.833496ZM6.74967 6.75016L4.58301 5.41683V2.91683H5.20801V5.0835L7.08301 6.2085L6.74967 6.75016Z" fill="#081B46"/>
</g>
<defs>
<clipPath id="clip0_170_160">
<rect width="10" height="10" fill="white"/>
</clipPath>
</defs>
</svg>
