<svg width="30" height="31" viewBox="0 0 30 31" fill="none" xmlns="http://www.w3.org/2000/svg">
<path d="M29.1663 30.5231H0.833008V27.2187H2.24967V2.43634C2.24967 1.99816 2.39893 1.57793 2.66461 1.26809C2.93028 0.958246 3.29062 0.78418 3.66634 0.78418H23.4997C23.8754 0.78418 24.2357 0.958246 24.5014 1.26809C24.7671 1.57793 24.9163 1.99816 24.9163 2.43634V10.6971H27.7497V27.2187H29.1663V30.5231ZM22.083 27.2187H24.9163V14.0015H16.4163V27.2187H19.2497V17.3058H22.083V27.2187ZM22.083 10.6971V4.0885H5.08301V27.2187H13.583V10.6971H22.083ZM7.91634 14.0015H10.7497V17.3058H7.91634V14.0015ZM7.91634 20.6101H10.7497V23.9144H7.91634V20.6101ZM7.91634 7.39282H10.7497V10.6971H7.91634V7.39282Z" fill="black"/>
</svg>
