<svg width="34" height="33" viewBox="0 0 34 33" fill="none" xmlns="http://www.w3.org/2000/svg">
<path d="M6.35595 23.3833C3.66415 24.1908 2 25.3062 2 26.5384C2 29.0026 8.6581 30.9999 16.8718 30.9999C25.0855 30.9999 31.7436 29.0026 31.7436 26.5384C31.7436 25.3062 30.0787 24.1908 27.3876 23.3833" stroke="#699BF7" stroke-width="4" stroke-linecap="round" stroke-linejoin="round"/>
<path d="M16.8717 25.0513C16.8717 25.0513 26.5384 18.7337 26.5384 11.4302C26.5384 6.2221 22.2107 2 16.8717 2C11.5328 2 7.20508 6.2221 7.20508 11.4302C7.20508 18.7337 16.8717 25.0513 16.8717 25.0513Z" stroke="#699BF7" stroke-width="4" stroke-linejoin="round"/>
<path d="M16.8722 15.3846C17.8583 15.3846 18.804 14.9929 19.5012 14.2957C20.1985 13.5984 20.5902 12.6527 20.5902 11.6667C20.5902 10.6806 20.1985 9.73494 19.5012 9.03769C18.804 8.34044 17.8583 7.94873 16.8722 7.94873C15.8862 7.94873 14.9405 8.34044 14.2433 9.03769C13.546 9.73494 13.1543 10.6806 13.1543 11.6667C13.1543 12.6527 13.546 13.5984 14.2433 14.2957C14.9405 14.9929 15.8862 15.3846 16.8722 15.3846Z" stroke="#699BF7" stroke-width="4" stroke-linejoin="round"/>
</svg>
