<svg width="86" height="40" viewBox="0 0 86 40" fill="none" xmlns="http://www.w3.org/2000/svg">
<path d="M83.1663 34.6949H54.833V31.3906H56.2497V6.60821C56.2497 6.17003 56.3989 5.7498 56.6646 5.43996C56.9303 5.13012 57.2906 4.95605 57.6663 4.95605H77.4997C77.8754 4.95605 78.2357 5.13012 78.5014 5.43996C78.7671 5.7498 78.9163 6.17003 78.9163 6.60821V14.869H81.7497V31.3906H83.1663V34.6949ZM76.083 31.3906H78.9163V18.1733H70.4163V31.3906H73.2497V21.4777H76.083V31.3906ZM76.083 14.869V8.26037H59.083V31.3906H67.583V14.869H76.083ZM61.9163 18.1733H64.7497V21.4777H61.9163V18.1733ZM61.9163 24.782H64.7497V28.0863H61.9163V24.782ZM61.9163 11.5647H64.7497V14.869H61.9163V11.5647Z" fill="black"/>
<path d="M19.8333 14.7822L31.1667 23.1306V26.4349L19.8333 22.2616V31.1171L24.0833 33.8696V36.3479L17.7083 34.6957L11.3333 36.3479V33.8696L15.5833 31.1155V22.2599L4.25 26.4349V23.1306L15.5833 14.7822V5.78293C15.5833 5.12566 15.8072 4.49531 16.2057 4.03055C16.6042 3.56579 17.1447 3.30469 17.7083 3.30469C18.2719 3.30469 18.8124 3.56579 19.2109 4.03055C19.6095 4.49531 19.8333 5.12566 19.8333 5.78293V14.7822Z" fill="black"/>
<path d="M41.792 21.2356H37.542V19.5834H41.792V14.627H43.2087V19.5834H47.4587V21.2356H43.2087V26.1921H41.792V21.2356Z" fill="black"/>
</svg>
