<svg width="34" height="40" viewBox="0 0 34 40" fill="none" xmlns="http://www.w3.org/2000/svg">
<path d="M27.7667 34.69L18.8417 24.2814C18.1333 24.9423 17.3187 25.4655 16.3979 25.851C15.4771 26.2365 14.4972 26.4292 13.4583 26.4292C10.8847 26.4292 8.70683 25.3895 6.92467 23.31C5.1425 21.2305 4.25094 18.6905 4.25 15.6902C4.25 12.6888 5.14156 10.1489 6.92467 8.07045C8.70778 5.99203 10.8857 4.95227 13.4583 4.95117C16.0319 4.95117 18.2098 5.99093 19.992 8.07045C21.7742 10.15 22.6657 12.6899 22.6667 15.6902C22.6667 16.9018 22.5014 18.0445 22.1708 19.1184C21.8403 20.1923 21.3917 21.1423 20.825 21.9684L29.75 32.377L27.7667 34.69ZM13.4583 23.1249C15.2292 23.1249 16.7346 22.4018 17.9747 20.9556C19.2147 19.5095 19.8343 17.7543 19.8333 15.6902C19.8333 13.625 19.2133 11.8693 17.9733 10.4231C16.7332 8.97693 15.2282 8.25439 13.4583 8.25549C11.6875 8.25549 10.1821 8.97859 8.942 10.4248C7.70194 11.871 7.08239 13.6261 7.08333 15.6902C7.08333 17.7554 7.70336 19.5111 8.94342 20.9573C10.1835 22.4035 11.6884 23.126 13.4583 23.1249Z" fill="black"/>
</svg>
