<svg width="20" height="18" viewBox="0 0 20 18" fill="none" xmlns="http://www.w3.org/2000/svg">
<path d="M2 0C1.46957 0 0.960859 0.224567 0.585786 0.624299C0.210714 1.02403 0 1.56618 0 2.13149V6.39447C0.530433 6.39447 1.03914 6.61904 1.41421 7.01877C1.78929 7.4185 2 7.96065 2 8.52596C2 9.09127 1.78929 9.63342 1.41421 10.0332C1.03914 10.4329 0.530433 10.6575 0 10.6575V14.9204C0 15.4857 0.210714 16.0279 0.585786 16.4276C0.960859 16.8274 1.46957 17.0519 2 17.0519H18C18.5304 17.0519 19.0391 16.8274 19.4142 16.4276C19.7893 16.0279 20 15.4857 20 14.9204V10.6575C19.4696 10.6575 18.9609 10.4329 18.5858 10.0332C18.2107 9.63342 18 9.09127 18 8.52596C18 7.96065 18.2107 7.4185 18.5858 7.01877C18.9609 6.61904 19.4696 6.39447 20 6.39447V2.13149C20 1.56618 19.7893 1.02403 19.4142 0.624299C19.0391 0.224567 18.5304 0 18 0H2ZM2 2.13149H18V4.83848C16.76 5.59516 16 7.00195 16 8.52596C16 10.05 16.76 11.4568 18 12.2134V14.9204H2V12.2134C3.24 11.4568 4 10.05 4 8.52596C4 7.00195 3.24 5.59516 2 4.83848V2.13149Z" fill="black"/>
</svg>
